<svg width="24" height="24" viewBox="0 0 24 24" fill="none" xmlns="http://www.w3.org/2000/svg">
<path id="Dribbble_Logo" d="M12 0C5.376 0 0 5.376 0 12C0 18.624 5.376 24 12 24C18.612 24 24 18.624 24 12C24 5.376 18.612 0 12 0ZM19.9272 5.532C21.36 7.2768 22.2168 9.5016 22.2432 11.9088C21.9048 11.844 18.5208 11.1528 15.1104 11.5824C15.0312 11.4144 14.9664 11.232 14.8896 11.0496C14.6808 10.5552 14.448 10.0464 14.2128 9.5664C17.988 8.0304 19.704 5.8176 19.9272 5.532ZM12 1.7712C14.604 1.7712 16.9848 2.748 18.7944 4.3488C18.612 4.608 17.064 6.6792 13.4184 8.0448C11.7384 4.9608 9.8784 2.436 9.5928 2.0448C10.3608 1.86 11.1672 1.7712 12 1.7712ZM7.6392 2.7336C7.9128 3.0984 9.7344 5.6352 11.4408 8.6544C6.6504 9.9288 2.4216 9.9048 1.9656 9.9048C2.628 6.7296 4.776 4.0872 7.6392 2.7336ZM1.7448 12.012C1.7448 11.9088 1.7448 11.8032 1.7448 11.7C2.1864 11.712 7.1592 11.7792 12.2736 10.2432C12.5736 10.8168 12.8472 11.4024 13.1064 11.988C12.9768 12.0264 12.8328 12.0672 12.7032 12.1056C7.4184 13.8096 4.608 18.4704 4.3728 18.8616C2.7456 17.0496 1.7448 14.6424 1.7448 12.012ZM12 22.2552C9.6312 22.2552 7.4448 21.4488 5.7144 20.0952C5.8968 19.7184 7.98 15.708 13.7568 13.692C13.7832 13.68 13.7952 13.68 13.8216 13.6656C15.2664 17.4 15.852 20.5368 16.008 21.4368C14.772 21.9696 13.4184 22.2552 12 22.2552ZM17.7144 20.4984C17.6112 19.8744 17.064 16.8792 15.7224 13.1976C18.936 12.6888 21.7488 13.524 22.0992 13.6392C21.6576 16.4904 20.0184 18.9504 17.7144 20.4984Z" fill="#D8D8D8"/>
</svg>
