<svg width="30" height="32" viewBox="0 0 30 32" fill="none" xmlns="http://www.w3.org/2000/svg">
<path d="M0.117535 0V0.297718H2.58603V14.8434H0.117535V15.1411H5.38811V14.8434H2.91961V0.57417H2.96409L8.2569 15.1624L13.5719 0.425312H13.6164V14.8434H11.1479V15.1411H18.3088V14.8434H15.8403V0.297718H18.3088V0H13.394L9.27988 11.4409H9.2354L5.12124 0H0.117535Z" fill="#D8D8D8"/>
<path d="M15.4648 0V0.297718H17.9333V14.8434H15.4648V15.1411H29.0304V10.4839H28.7858C28.341 13.1209 26.6954 14.8434 24.4493 14.8434H20.1572V7.16651H22.0253C24.0267 7.16651 24.4715 8.69763 24.8496 10.3563H25.0942V3.74275H24.8496C24.2714 6.01816 23.7376 6.86879 21.6917 6.86879H20.1572V0.297718H23.8933C25.9393 0.297718 27.1179 1.12708 27.9407 3.67895H28.1854V0H15.4648Z" fill="#D8D8D8"/>
<path d="M0 16.5399V16.8376H2.4685V31.3833H0V31.681H5.27057V31.3833H2.80208V17.7095H2.84655L12.209 31.9787H12.6538V16.8376H15.1223V16.5399H9.85174V16.8376H12.3202V28.1297H12.2758L4.75908 16.5399H0Z" fill="#D8D8D8"/>
<path d="M14.0549 16.5399V16.8376H16.5234V26.9601C16.5234 30.2137 18.3692 32 22.0163 32C23.8621 32 25.1742 31.596 26.1082 30.7241C27.0423 29.8522 27.5315 28.7251 27.5315 27.2365V16.8376H30V16.5399H24.7294V16.8376H27.1979V27.1089C27.1979 28.7889 26.7087 29.7033 25.9303 30.4901C25.1297 31.2982 23.9511 31.7023 22.4388 31.7023C19.7257 31.7023 18.7472 30.1074 18.7472 27.1727V16.8376H21.2157V16.5399H14.0549Z" fill="#D8D8D8"/>
</svg>
